<svg width="150" height="210" viewBox="0 0 150 210" fill="none" xmlns="http://www.w3.org/2000/svg">
<rect x="1" y="1" width="148" height="208" rx="5.875" stroke="white" stroke-width="2" stroke-linecap="round" stroke-dasharray="10 10"/>
<path d="M58.8867 105.898C58.8867 105.417 59.056 105.007 59.3945 104.668C59.7461 104.316 60.1562 104.141 60.625 104.141H73.2617V91.5234C73.2617 91.0547 73.431 90.651 73.7695 90.3125C74.1081 89.9609 74.5182 89.7852 75 89.7852C75.4818 89.7852 75.8919 89.9609 76.2305 90.3125C76.582 90.651 76.7578 91.0547 76.7578 91.5234V104.141H89.375C89.8438 104.141 90.2474 104.316 90.5859 104.668C90.9375 105.007 91.1133 105.417 91.1133 105.898C91.1133 106.38 90.9375 106.79 90.5859 107.129C90.2474 107.467 89.8438 107.637 89.375 107.637H76.7578V120.273C76.7578 120.742 76.582 121.146 76.2305 121.484C75.8919 121.836 75.4818 122.012 75 122.012C74.5182 122.012 74.1081 121.836 73.7695 121.484C73.431 121.146 73.2617 120.742 73.2617 120.273V107.637H60.625C60.1562 107.637 59.7461 107.467 59.3945 107.129C59.056 106.79 58.8867 106.38 58.8867 105.898Z" fill="white"/>
</svg>
