<svg width="372" height="700" viewBox="0 0 372 700" fill="none" xmlns="http://www.w3.org/2000/svg">
<g style="mix-blend-mode:multiply" opacity="0.2">
<path d="M586.202 141.821C531.748 86.5455 454.722 87.898 393.611 122.994C394.503 126.527 394.976 130.226 394.976 134.035C394.976 158.876 374.84 179.013 350 179.013C325.16 179.013 305.023 158.876 305.023 134.035C305.023 130.226 305.497 126.527 306.388 122.994C245.278 87.8975 168.251 86.5462 113.797 141.821C85.7917 170.249 72.8234 205.292 72.0505 241.631C91.7151 246.439 106.308 264.177 106.308 285.323C106.308 299.879 99.3942 312.82 88.6712 321.04C96.98 340.04 108.204 358.298 121.905 374.992C177.917 443.24 252.472 502.869 325.083 555.345C332.212 550.596 340.775 547.829 349.984 547.829C359.2 547.829 367.769 550.601 374.902 555.356C447.517 502.877 522.078 443.245 578.094 374.992C591.795 358.298 603.019 340.04 611.328 321.04C600.605 312.82 593.691 299.879 593.691 285.323C593.691 264.177 608.284 246.439 627.949 241.631C627.176 205.292 614.208 170.249 586.202 141.821Z" fill="#F24E1E"/>
<path d="M337.609 150.299C333.974 147.525 331.297 143.56 330.159 138.986C330.159 138.986 330.159 138.986 330.159 138.986C329.765 137.401 329.556 135.743 329.556 134.035C329.556 122.744 338.709 113.591 350 113.591C361.291 113.591 370.444 122.744 370.444 134.035C370.444 139.044 368.643 143.632 365.653 147.186C362.369 151.092 357.651 153.75 352.309 154.351C351.551 154.436 350.781 154.48 350 154.48C349.219 154.48 348.448 154.436 347.69 154.351C343.926 153.928 340.471 152.482 337.609 150.299Z" fill="#F24E1E"/>
<path d="M349.984 572.362C350.349 572.362 350.713 572.371 351.074 572.39C361.858 572.957 370.428 581.88 370.428 592.806C370.428 604.097 361.275 613.25 349.984 613.25C338.693 613.25 329.54 604.097 329.54 592.806C329.54 581.515 338.693 572.362 349.984 572.362Z" fill="#F24E1E"/>
<path d="M620.709 295.101C619.125 292.197 618.224 288.865 618.224 285.323C618.224 278.687 621.386 272.789 626.285 269.055C629.722 266.435 634.013 264.879 638.668 264.879C649.959 264.879 659.112 274.032 659.112 285.323C659.112 296.614 649.959 305.768 638.668 305.768C630.919 305.768 624.177 301.456 620.709 295.101Z" fill="#F24E1E"/>
<path d="M61.3318 305.768C72.6227 305.768 81.7757 296.614 81.7757 285.323C81.7757 274.032 72.6227 264.879 61.3318 264.879C50.0409 264.879 40.8879 274.032 40.8879 285.323C40.8879 296.614 50.0409 305.768 61.3318 305.768Z" fill="#F24E1E"/>
<path fill-rule="evenodd" clip-rule="evenodd" d="M660.739 246.126C661.165 200.789 645.964 155.849 609.482 118.816C540.768 49.0653 446.181 54.1364 374.587 96.3683C367.521 91.7463 359.074 89.0591 350 89.0591C340.926 89.0591 332.48 91.7462 325.413 96.3681C253.82 54.1356 159.231 49.0662 90.5177 118.816C54.0359 155.849 38.8352 200.789 39.261 246.126C25.5876 253.841 16.3552 268.505 16.3552 285.325C16.3552 308.75 34.263 327.993 57.1354 330.109C66.9522 353.734 80.4362 376.047 96.6411 395.792C155.409 467.399 232.886 529.135 306.277 582.15C305.447 585.566 305.007 589.135 305.007 592.807C305.007 617.647 325.144 637.785 349.984 637.785C374.824 637.785 394.961 617.647 394.961 592.807C394.961 589.142 394.522 585.58 393.695 582.169C467.095 529.15 544.583 467.408 603.359 395.792C619.564 376.047 633.048 353.734 642.865 330.109C665.737 327.993 683.645 308.75 683.645 285.325C683.645 268.505 674.412 253.841 660.739 246.126ZM393.611 122.995C393.611 122.995 393.612 122.996 393.611 122.995C454.722 87.8991 531.748 86.5458 586.202 141.821C586.202 141.821 586.202 141.821 586.202 141.821C612.457 168.473 625.497 200.938 627.661 234.835C627.805 237.095 627.901 239.361 627.949 241.632C608.285 246.44 593.692 264.178 593.692 285.325C593.692 298.061 598.985 309.56 607.492 317.743C608.707 318.912 609.988 320.013 611.328 321.041C603.019 340.04 591.795 358.299 578.094 374.993C522.078 443.246 447.517 502.878 374.902 555.357C367.769 550.602 359.2 547.83 349.984 547.83C340.775 547.83 332.213 550.597 325.083 555.346C252.472 502.87 177.918 443.241 121.906 374.993C115.482 367.165 109.602 358.994 104.313 350.564C98.3202 341.015 93.0846 331.133 88.6715 321.041C88.6714 321.041 88.6716 321.042 88.6715 321.041C99.3944 312.821 106.308 299.879 106.308 285.324C106.308 283.937 106.246 282.565 106.123 281.211C105.777 277.401 104.957 273.728 103.721 270.253C98.6949 256.117 86.7992 245.238 72.0507 241.632C72.8236 205.293 85.7917 170.249 113.797 141.821C168.251 86.5465 245.278 87.8978 306.388 122.994C305.497 126.527 305.023 130.227 305.023 134.037C305.023 135.397 305.084 136.743 305.202 138.073C305.624 142.813 306.78 147.342 308.558 151.544C315.386 167.687 331.37 179.013 350 179.013C374.84 179.013 394.976 158.876 394.976 134.036C394.976 132.84 394.93 131.655 394.838 130.483C394.638 127.921 394.223 125.419 393.611 122.995ZM337.609 150.299C333.974 147.525 331.297 143.56 330.159 138.986C329.765 137.401 329.556 135.743 329.556 134.036C329.556 122.745 338.709 113.591 350 113.591C361.291 113.591 370.444 122.745 370.444 134.036C370.444 139.044 368.643 143.632 365.653 147.187C362.369 151.092 357.651 153.751 352.309 154.351C351.551 154.436 350.781 154.48 350 154.48C349.219 154.48 348.448 154.436 347.69 154.351C343.926 153.928 340.471 152.482 337.609 150.299ZM351.074 572.391C350.713 572.372 350.349 572.362 349.984 572.362C338.693 572.362 329.54 581.515 329.54 592.806C329.54 604.097 338.693 613.251 349.984 613.251C361.275 613.251 370.428 604.097 370.428 592.806C370.428 581.881 361.858 572.957 351.074 572.391ZM620.709 295.101C619.125 292.197 618.224 288.865 618.224 285.324C618.224 278.688 621.386 272.79 626.285 269.055C629.722 266.435 634.013 264.879 638.668 264.879C649.959 264.879 659.112 274.033 659.112 285.324C659.112 296.615 649.959 305.768 638.668 305.768C630.919 305.768 624.177 301.457 620.709 295.101ZM81.7757 285.324C81.7757 296.615 72.6227 305.768 61.3318 305.768C50.0409 305.768 40.8879 296.615 40.8879 285.324C40.8879 274.033 50.0409 264.879 61.3318 264.879C72.6227 264.879 81.7757 274.033 81.7757 285.324Z" fill="white"/>
<path d="M72.0507 241.632C72.0507 241.632 72.0507 241.632 72.0507 241.632V241.632Z" fill="#F24E1E"/>
<path d="M306.388 122.995C306.388 122.995 306.389 122.995 306.388 122.995V122.995Z" fill="#F24E1E"/>
<path fill-rule="evenodd" clip-rule="evenodd" d="M0 285.325C0 265.935 9.00234 248.664 23.0081 237.439C24.5147 191.123 41.4517 145.318 78.8667 107.338C151.643 33.464 250.426 37.0166 325.664 77.7261C333.135 74.4945 341.37 72.7037 350 72.7037C358.63 72.7037 366.866 74.4945 374.336 77.7264C449.574 37.0173 548.356 33.463 621.133 107.338C658.548 145.318 675.485 191.123 676.992 237.439C690.998 248.664 700 265.935 700 285.325C700 313.769 680.647 337.678 654.383 344.623C644.339 366.697 631.311 387.515 616.001 406.168C558.004 476.835 482.592 537.687 411.236 589.652C411.289 590.698 411.316 591.75 411.316 592.807C411.316 626.681 383.857 654.14 349.984 654.14C316.111 654.14 288.652 626.681 288.652 592.807C288.652 591.742 288.68 590.683 288.734 589.63C217.386 537.67 141.987 476.825 83.9986 406.168C68.6894 387.515 55.661 366.697 45.6171 344.623C19.3527 337.678 0 313.769 0 285.325ZM90.5177 118.816C56.1641 153.688 40.6811 195.573 39.3471 238.197C39.2645 240.838 39.2362 243.481 39.261 246.126C38.0084 246.833 36.793 247.598 35.6186 248.418C23.9734 256.546 16.3551 270.046 16.3551 285.325C16.3551 307.401 32.2604 325.763 53.2369 329.576C54.5183 329.809 55.8186 329.987 57.1354 330.109C57.9855 332.155 58.8631 334.191 59.7676 336.216C69.308 357.579 81.8395 377.757 96.6411 395.792C155.409 467.399 232.886 529.135 306.277 582.15C305.447 585.566 305.007 589.135 305.007 592.807C305.007 617.648 325.144 637.785 349.984 637.785C374.824 637.785 394.961 617.648 394.961 592.807C394.961 589.142 394.522 585.58 393.695 582.17C467.095 529.15 544.583 467.408 603.359 395.792C618.161 377.757 630.692 357.579 640.232 336.216C641.137 334.191 642.015 332.155 642.865 330.109C644.181 329.987 645.482 329.809 646.763 329.576C667.74 325.763 683.645 307.401 683.645 285.325C683.645 270.046 676.027 256.546 664.382 248.418C663.207 247.598 661.992 246.833 660.739 246.126C660.764 243.481 660.735 240.837 660.653 238.197C659.319 195.573 643.836 153.688 609.482 118.816C540.768 49.0654 446.181 54.1365 374.587 96.3684C367.521 91.7464 359.074 89.0592 350 89.0592C340.926 89.0592 332.48 91.7463 325.413 96.3682C253.82 54.1357 159.231 49.0663 90.5177 118.816Z" fill="#F24E1E"/>
</g>
</svg>
