<svg width="350" height="700" viewBox="0 0 350 700" fill="none" xmlns="http://www.w3.org/2000/svg">
<g style="mix-blend-mode:multiply" opacity="0.2">
<path d="M-228.095 325.008C-172.083 256.759 -97.5281 197.13 -24.9174 144.654C-17.7877 149.403 -9.22519 152.171 -0.0162048 152.171C9.19992 152.171 17.7686 149.399 24.9017 144.643C97.5172 197.122 172.078 256.754 228.094 325.008C241.795 341.701 253.019 359.959 261.328 378.959C250.605 387.179 243.691 400.12 243.691 414.676C243.691 435.822 258.284 453.56 277.949 458.368C277.176 494.707 264.208 529.75 236.202 558.178C181.748 613.454 104.722 612.101 43.6112 577.005C44.5028 573.472 44.9764 569.773 44.9764 565.964C44.9764 541.123 24.8397 520.986 -0.000244141 520.986C-24.8401 520.986 -44.9769 541.123 -44.9769 565.964C-44.9769 569.773 -44.5032 573.472 -43.6116 577.005C-104.722 612.102 -181.749 613.453 -236.203 558.178C-264.208 529.75 -277.177 494.707 -277.95 458.368C-258.285 453.56 -243.692 435.822 -243.692 414.676C-243.692 400.12 -250.606 387.179 -261.329 378.959C-253.02 359.959 -241.796 341.701 -228.095 325.008Z" fill="#2C2C2C"/>
<path d="M-20.4439 565.963C-20.4439 564.256 -20.2347 562.598 -19.8405 561.013C-19.5864 559.991 -19.2557 559 -18.8544 558.046C-16.4464 552.319 -11.5054 547.919 -5.43372 546.249C-3.70346 545.773 -1.88144 545.519 0 545.519C11.2909 545.519 20.4439 554.672 20.4439 565.963C20.4439 577.254 11.2909 586.408 0 586.408C-11.2909 586.408 -20.4439 577.254 -20.4439 565.963Z" fill="#2C2C2C"/>
<path d="M-1.07599 127.61C-11.874 127.058 -20.4599 118.128 -20.4599 107.193C-20.4599 95.9017 -11.3069 86.7485 -0.0159607 86.7485C11.2749 86.7485 20.4279 95.9017 20.4279 107.193C20.4279 118.118 11.858 127.042 1.07336 127.609" fill="#2C2C2C"/>
<path d="M-276.286 430.944C-273.998 429.201 -272.089 426.985 -270.704 424.443C-269.123 421.541 -268.224 418.213 -268.224 414.675C-268.224 403.384 -277.377 394.231 -288.668 394.231C-299.959 394.231 -309.112 403.384 -309.112 414.675C-309.112 425.966 -299.959 435.12 -288.668 435.12C-284.014 435.12 -279.722 433.564 -276.286 430.944Z" fill="#2C2C2C"/>
<path d="M270.709 404.898C269.224 407.621 268.339 410.719 268.234 414.014C268.228 414.234 268.224 414.454 268.224 414.676C268.224 421.312 271.386 427.21 276.285 430.944C279.722 433.564 284.013 435.12 288.668 435.12C299.959 435.12 309.112 425.966 309.112 414.675C309.112 403.384 299.959 394.231 288.668 394.231C280.919 394.231 274.177 398.543 270.709 404.898Z" fill="#2C2C2C"/>
<path fill-rule="evenodd" clip-rule="evenodd" d="M310.739 453.873C311.165 499.21 295.964 544.15 259.482 581.183C190.768 650.934 96.1807 645.862 24.587 603.63C17.5205 608.253 9.0741 610.94 0 610.94C-9.07391 610.94 -17.5202 608.253 -24.5866 603.631C-96.1805 645.863 -190.769 650.933 -259.482 581.183C-295.964 544.15 -311.165 499.21 -310.739 453.873C-324.412 446.158 -333.645 431.494 -333.645 414.674C-333.645 391.249 -315.737 372.006 -292.865 369.89C-283.048 346.265 -269.564 323.952 -253.359 304.207C-194.591 232.6 -117.114 170.864 -43.7225 117.849C-44.5526 114.433 -44.9926 110.864 -44.9926 107.192C-44.9926 82.3514 -24.8559 62.2143 -0.0159607 62.2143C24.8239 62.2143 44.9607 82.3514 44.9607 107.192C44.9607 110.857 44.5224 114.419 43.6953 117.829C117.095 170.849 194.583 232.591 253.359 304.207C269.564 323.952 283.048 346.265 292.865 369.89C315.737 372.006 333.645 391.249 333.645 414.674C333.645 431.494 324.412 446.158 310.739 453.873ZM-228.094 325.006C-172.082 256.758 -97.5278 197.129 -24.9172 144.653C-17.7875 149.402 -9.22495 152.169 -0.0159607 152.169C9.20016 152.169 17.7689 149.397 24.9019 144.642C97.5174 197.12 172.078 256.753 228.094 325.006C229.807 327.093 231.481 329.204 233.115 331.338C244.556 346.276 254.058 362.333 261.328 378.957C259.988 379.985 258.707 381.086 257.492 382.255C248.985 390.439 243.692 401.938 243.692 414.674C243.692 415.996 243.749 417.304 243.86 418.597C245.536 437.987 259.514 453.859 277.949 458.367C277.901 460.638 277.805 462.904 277.661 465.164C275.497 499.06 262.458 531.525 236.202 558.177C229.396 565.086 222.236 571.111 214.799 576.295C175.59 603.629 128.667 607.611 85.0467 594.791C70.751 590.59 56.8098 584.584 43.6112 577.004C43.6112 577.004 43.6112 577.004 43.6112 577.004C43.7366 576.507 43.854 576.006 43.9627 575.503C44.6269 572.428 44.9764 569.236 44.9764 565.963C44.9764 541.122 24.8397 520.985 -0.000244141 520.985C-6.21011 520.985 -12.1261 522.243 -17.5069 524.519C-30.7924 530.139 -40.816 541.96 -43.9481 556.354C-44.6218 559.45 -44.9766 562.665 -44.9766 565.962C-44.9766 569.772 -44.503 573.471 -43.6114 577.004C-43.6115 577.004 -43.6113 577.004 -43.6114 577.004C-104.722 612.1 -181.749 613.452 -236.203 558.177C-264.208 529.749 -277.177 494.706 -277.95 458.367C-273.033 457.165 -268.434 455.155 -264.3 452.485C-258.259 448.583 -253.213 443.273 -249.626 437.019C-245.85 430.436 -243.692 422.807 -243.692 414.675C-243.692 400.119 -250.606 387.178 -261.329 378.958C-261.329 378.958 -261.329 378.958 -261.329 378.958C-253.02 359.958 -241.795 341.7 -228.094 325.006ZM-20.4439 565.962C-20.4439 564.255 -20.2347 562.597 -19.8405 561.012C-19.5864 559.99 -19.2557 558.999 -18.8544 558.044C-16.4464 552.317 -11.5054 547.918 -5.43372 546.248C-3.70346 545.772 -1.88144 545.518 0 545.518C11.2909 545.518 20.4439 554.671 20.4439 565.962C20.4439 577.253 11.2909 586.407 0 586.407C-11.2909 586.407 -20.4439 577.253 -20.4439 565.962ZM-20.4599 107.192C-20.4599 118.127 -11.874 127.057 -1.07599 127.609L1.07336 127.608C11.858 127.041 20.4279 118.117 20.4279 107.192C20.4279 95.9007 11.2749 86.7475 -0.0159607 86.7475C-11.3069 86.7475 -20.4599 95.9007 -20.4599 107.192ZM-276.286 430.943C-273.998 429.2 -272.089 426.984 -270.704 424.442C-269.123 421.54 -268.224 418.212 -268.224 414.674C-268.224 403.383 -277.377 394.23 -288.668 394.23C-299.959 394.23 -309.112 403.383 -309.112 414.674C-309.112 425.965 -299.959 435.119 -288.668 435.119C-284.014 435.119 -279.722 433.563 -276.286 430.943ZM268.234 414.013C268.339 410.718 269.224 407.62 270.709 404.897C274.177 398.542 280.919 394.23 288.668 394.23C299.959 394.23 309.112 403.383 309.112 414.674C309.112 425.965 299.959 435.119 288.668 435.119C284.013 435.119 279.722 433.563 276.285 430.943C271.386 427.208 268.224 421.311 268.224 414.675C268.224 414.453 268.228 414.233 268.234 414.013Z" fill="white"/>
<path fill-rule="evenodd" clip-rule="evenodd" d="M266.001 293.832C208.004 223.164 132.592 162.313 61.2357 110.348C61.2889 109.302 61.3158 108.25 61.3158 107.193C61.3158 73.3194 33.8566 45.8597 -0.0159607 45.8597C-33.8886 45.8597 -61.3477 73.3194 -61.3477 107.193C-61.3477 108.257 -61.3205 109.317 -61.2665 110.37C-132.614 162.33 -208.013 223.174 -266.001 293.832C-281.311 312.485 -294.339 333.303 -304.383 355.377C-330.647 362.322 -350 386.231 -350 414.675C-350 434.065 -340.998 451.336 -326.992 462.561C-325.485 508.877 -308.548 554.682 -271.133 592.662C-198.357 666.536 -99.5744 662.983 -24.3355 622.274C-16.8655 625.505 -8.62973 627.296 0 627.296C8.62991 627.296 16.8659 625.505 24.336 622.273C99.5745 662.983 198.356 666.537 271.133 592.662C308.548 554.682 325.485 508.877 326.992 462.561C340.998 451.336 350 434.065 350 414.675C350 386.231 330.647 362.322 304.383 355.377C294.339 333.303 281.311 312.485 266.001 293.832ZM292.865 369.891C292.015 367.845 291.137 365.809 290.232 363.784C280.692 342.421 268.161 322.243 253.359 304.208C194.583 232.592 117.095 170.849 43.6953 117.83C44.5224 114.42 44.9607 110.857 44.9607 107.193C44.9607 82.3523 24.8239 62.2152 -0.0159607 62.2152C-24.8559 62.2152 -44.9926 82.3523 -44.9926 107.193C-44.9926 110.865 -44.5526 114.434 -43.7225 117.85C-117.114 170.865 -194.591 232.601 -253.359 304.208C-268.161 322.243 -280.692 342.421 -290.232 363.784C-291.137 365.809 -292.015 367.845 -292.865 369.891C-294.181 370.013 -295.482 370.191 -296.763 370.424C-317.74 374.237 -333.645 392.599 -333.645 414.675C-333.645 429.954 -326.027 443.454 -314.381 451.582C-313.207 452.402 -311.992 453.167 -310.739 453.874C-310.764 456.519 -310.735 459.162 -310.653 461.803C-309.319 504.427 -293.836 546.312 -259.482 581.183C-190.769 650.934 -96.1805 645.864 -24.5866 603.632C-17.5202 608.254 -9.07391 610.941 0 610.941C9.0741 610.941 17.5205 608.254 24.587 603.631C96.1807 645.863 190.768 650.935 259.482 581.183C293.836 546.312 309.319 504.427 310.653 461.803C310.735 459.162 310.764 456.519 310.739 453.874C311.992 453.167 313.207 452.402 314.382 451.582C326.027 443.454 333.645 429.954 333.645 414.675C333.645 392.598 317.74 374.237 296.763 370.424C295.482 370.191 294.181 370.013 292.865 369.891Z" fill="#2C2C2C"/>
</g>
</svg>
